<?xml version="1.0" standalone="no"?><!DOCTYPE svg PUBLIC "-//W3C//DTD SVG 1.1//EN" "http://www.w3.org/Graphics/SVG/1.1/DTD/svg11.dtd"><svg t="1652361026035" class="icon" viewBox="0 0 1754 1024" version="1.1" xmlns="http://www.w3.org/2000/svg" p-id="1786" xmlns:xlink="http://www.w3.org/1999/xlink" width="219.25" height="128"><defs><style type="text/css">@font-face { font-family: feedback-iconfont; src: url("//at.alicdn.com/t/font_1031158_u69w8yhxdu.woff2?t=1630033759944") format("woff2"), url("//at.alicdn.com/t/font_1031158_u69w8yhxdu.woff?t=1630033759944") format("woff"), url("//at.alicdn.com/t/font_1031158_u69w8yhxdu.ttf?t=1630033759944") format("truetype"); }
</style></defs><path d="M1501.68097 429.714424c-6.23735-23.234128-9.625011-35.307299-10.135693-36.254596-5.941076 2.019342-15.300999 5.847516-28.122652 11.41435a234.419101 234.419101 0 0 1 9.059751 35.817982q6.845492-2.63528 29.198594-10.977736z m-103.812892 41.712278h31.139969l3.843767-18.899171h-56.225811a34.726446 34.726446 0 0 0 3.871056-7.85906h46.351306l3.847665-18.891374h-16.723894a244.909544 244.909544 0 0 1 19.612567-18.135095l-19.456633-12.576056a273.733897 273.733897 0 0 1-20.45461 23.978712l11.74571 7.457531h-16.684911l2.381888-7.823976 3.118675-7.960418q3.83597-10.057727 6.026839-14.879977c0.14034-1.302047-0.690007-2.054427-3.301897-2.339007a191.408675 191.408675 0 0 0-23.241925-1.582727c-3.208337 13.784543-6.139891 24.625837-9.126023 33.880505h-14.813706l4.744285-3.262914a101.013882 101.013882 0 0 0 12.529276-8.96619 75.214643 75.214643 0 0 0-11.695031-20.860037c-0.120849-0.670515-6.26074 3.142065-18.462555 11.336383l-4.155635 2.837994a16.692708 16.692708 0 0 0 1.532049 2.276633 128.851954 128.851954 0 0 1 10.595698 16.649826h-12.135544l-3.871055 18.891373h27.370271l-1.949172 3.917836-1.925781 3.941225h-29.627412l-3.832072 18.89917h20.516983a104.662731 104.662731 0 0 1-26.78552 24.122951l-0.019492 0.027289c-1.489167 0.884924-2.96664 1.76595-4.44801 2.631382l0.549667-2.658671 18.766626-92.605154h-53.231883l-18.770525 92.562272-1.192893 5.804634a181.30027 181.30027 0 0 1-22.563613 58.86499 82.793023 82.793023 0 0 1 14.147089 16.536774 201.825049 201.825049 0 0 0 26.563314-63.605376h11.383164l-6.525828 32.297777q-0.779669 6.572607-12.517581 5.496665a87.90765 87.90765 0 0 1 1.535947 24.200918q28.457909-0.202714 28.991982-13.765052l11.398757-56.08547a45.536553 45.536553 0 0 1 9.126023 13.012671 54.163587 54.163587 0 0 0 10.248745-7.457532l-7.052104 23.604471h63.811988l-1.274758 6.280232q-3.773597 19.129172-10.455358 17.905093l3.62546-17.905093h-68.37305l-3.804784 18.731541h55.469533a44.441118 44.441118 0 0 1 3.898343 22.025642q26.578907-0.927806 32.905919-8.666018a25.693983 25.693983 0 0 0 4.050379-8.693306q4.338857-13.480472 10.630784-39.408357l2.389684-9.968064h-23.545996l3.005623-14.985233a81.865217 81.865217 0 0 0 17.491869 13.020467c5.067847-6.518031 9.866708-12.303173 14.423871-17.22678a168.084885 168.084885 0 0 1 5.894296-6.015145q-21.421399-6.303622-31.292005-18.111704z m-110.073632 22.021743h-11.394859l5.122424-25.175503h11.363672z m8.96619-44.051283h-11.410452l5.410901-26.773825h11.429944z m68.610849 66.170485h-18.973239a129.479587 129.479587 0 0 1 4.093261-12.630633 4.845641 4.845641 0 0 0-2.136292-0.779669h-11.43774l4.763776-4.713098h27.354677z m-6.350402-36.254596l3.095285-3.898344 3.0602-3.964615h6.857186a38.488347 38.488347 0 0 0 3.711224 7.878552z m137.35814 30.095213l-4.338857-9.652299-4.327161 3.960717c-7.656347 7.040409-13.1803 11.874355-16.497791 14.564212l4.611741-22.731242 8.966191-44.168234h-45.220787l-4.490892 22.049032h21.659197l-4.49479 22.107507-7.457531 36.886128a30.543523 30.543523 0 0 1-11.336384 15.764902 12.903518 12.903518 0 0 0-3.145963 3.145963 63.153168 63.153168 0 0 0 12.618938 22.263441 33.272363 33.272363 0 0 0 7.328886-6.716846q9.905691-10.833497 50.428974-47.820982c-0.066272-0.335258-1.532049-3.496814-4.295974-9.660096z m85.712883 16.723895c-3.980209 12.704702-6.455657 16.762878-7.469227 12.240799-2.034935-8.455507-0.904416-22.657173 3.340881-42.737542h0.027288a3.855462 3.855462 0 0 1 0.120849-0.604243l18.509335-91.291413h-83.588285l-4.451908 22.017845h17.484071l-8.30737 40.932609h-22.041235l-4.455807 22.091914h22.021743l-1.360522 6.755829-15.983209 78.867391h24.31397l15.983209-78.867391 1.356623-6.763626h17.476275l-1.376115 6.763626-1.972562 9.718571q-8.092961 39.0692 5.999551 60.455514 8.186522 12.061475 19.959519 10.233152 12.201816 0.643227 24.208715-40.757183c-7.289903-3.422746-13.889799-6.369894-19.795789-9.055852z m-21.807335-59.418555h-18.21696l8.287879-40.932609h18.220858z" fill="#002F78" p-id="1787"></path><path d="M319.547232 389.834368H158.463772l-6.416673 26.571111h60.712804l-19.101884 79.136377-19.655449 81.549451h39.817683l19.686635-81.545553 19.101884-79.136377h60.541278z m232.976713 47.208942a86.80052 86.80052 0 0 0-49.415404 16.341857l-35.61137-12.576057-13.215385 54.740542-19.678839 81.545554h38.652078l15.877954-65.757262a131.011636 131.011636 0 0 1 4.7053-15.725918 54.966646 54.966646 0 0 1 11.74571-19.979012q10.525528-10.338407 29.685887-10.342305 17.62831 0 22.403781 7.839569 4.288178 6.603794 1.266962 22.423273a108.257004 108.257004 0 0 1-1.146113 5.457681l-18.384589 76.095669h38.698858l19.624262-81.545554 0.49509-1.988155q6.954645-28.812658-3.999701-41.556344-12.618939-15.004725-41.704481-14.973538z m166.042153-3.933428a122.747148 122.747148 0 0 0-69.678995 20.973089q-26.130598 17.476275-35.619166 41.462783l30.796915 0.019492-30.796915 0.066272a76.555673 76.555673 0 0 0-3.145964 9.952471q-7.406853 30.524031 13.644203 51.068302 21.121226 20.396134 59.730422 20.423423a137.412717 137.412717 0 0 0 49.228284-9.93298l10.046032-41.575835a129.035176 129.035176 0 0 1-28.582656 18.509336 66.685067 66.685067 0 0 1-25.658898 4.880726q-21.663096 0-32.746087-12.314868-10.860786-12.322664-6.23735-31.471328a52.354756 52.354756 0 0 1 3.336982-9.617214h0.035085a55.613771 55.613771 0 0 1 18.536624-21.577333 65.129628 65.129628 0 0 1 39.073099-12.474699 46.823006 46.823006 0 0 1 22.891074 5.005473 62.919267 62.919267 0 0 1 19.226631 18.05323l10.135694-41.844822a98.538433 98.538433 0 0 0-44.215014-9.605518z m328.030027 3.933428a86.855097 86.855097 0 0 0-49.430997 16.341857l-35.61137-12.576057-13.22708 54.740542-19.663246 81.545554h38.663773l15.83897-65.757262a138.508151 138.508151 0 0 1 4.736488-15.725918h0.019492a55.227835 55.227835 0 0 1 11.726217-19.979012q10.580105-10.338407 29.717074-10.342305 17.589327 0 22.3609 7.839569 4.288178 6.603794 1.29425 22.423273c-0.288477 1.711373-0.697804 3.543594-1.169503 5.457681l-18.376792 76.095669h38.652077l19.663246-81.545554 0.483394-1.988155q6.954645-28.812658-3.988005-41.556344-12.611142-15.004725-41.688888-14.973538z m81.678097 58.502444l-19.686635 81.545553h38.441567l19.69833-81.545553 5.535648-22.871582h-38.492245z m21.557841-89.490378l-8.381439 34.753734h-31.826078l-6.23735 25.978563h116.950311z m-287.210471 27.054506a103.610178 103.610178 0 0 0-63.270118 19.74511 89.774957 89.774957 0 0 0-31.677941 42.690762l0.019492 0.085764h-0.019492a92.000911 92.000911 0 0 0-2.806807 9.550942q-7.882451 32.566763 9.913488 52.331365 17.858312 19.600872 55.149868 19.577482c42.297029 0 74.606501-26.684163 77.885008-29.627412l-18.26374-4.436315c-4.323263 1.021366-27.927734 8.147538-51.485425 5.925482-29.685887-2.763926-36.476802-25.339234-34.784921-36.543073h119.363386l1.949172-7.406853c0.779669-3.274609 1.430692-6.498539 1.871204-9.476874h-1.095434l1.095434-0.081865c2.584602-17.975263-0.900517-32.356253-10.342305-43.174156q-16.774573-19.125274-53.500869-19.160359z m-50.573213 53.606124a46.242153 46.242153 0 0 1 7.991605-10.525528 49.329641 49.329641 0 0 1 10.443663-7.823976 52.374247 52.374247 0 0 1 12.474699-5.032762 50.678468 50.678468 0 0 1 13.616915-1.797136c20.544271 0 31.416752 8.400931 32.746087 25.1833zM365.200735 433.109882a103.602382 103.602382 0 0 0-63.277915 19.74511 89.716482 89.716482 0 0 0-31.670144 42.690762l0.019492 0.085764h-0.019492a87.276118 87.276118 0 0 0-2.806808 9.550942q-7.894146 32.570661 9.917387 52.331365 17.858312 19.600872 55.142071 19.577482c42.308724 0 74.6104-26.684163 77.900602-29.627412l-18.275435-4.436315c-4.30767 1.021366-27.912141 8.147538-51.489324 5.925482-29.685887-2.763926-36.465107-25.339234-34.765429-36.543073h119.351691l1.949172-7.406853c0.779669-3.274609 1.415099-6.498539 1.871204-9.476874h-1.095434l1.095434-0.081865q3.855462-26.960945-10.350102-43.174156-16.731691-19.125274-53.49697-19.160359zM314.635319 486.716006a46.269441 46.269441 0 0 1 7.999401-10.525528 49.294556 49.294556 0 0 1 10.435866-7.823976 52.307976 52.307976 0 0 1 12.513683-5.032762 50.627789 50.627789 0 0 1 13.616915-1.797136q30.796915 0 32.746087 25.1833z" fill="#002F78" p-id="1788"></path></svg>